<svg style="position: absolute; width: 0; height: 0; overflow: hidden;" version="1.1" xmlns="http://www.w3.org/2000/svg" xmlns:xlink="http://www.w3.org/1999/xlink">
<defs>
<symbol id="icon-wave" viewBox="0 0 1920.1 171">
<path class="st0" style="fill:#FFFFFF;" d="M1920.5,171V61.3v-4V4h0l-0.3,39c-114.1-20.2-257.5-20.6-391.4-10.3c-155.5,12-303.7,37.2-453.9,58.3
	c-150.2,21.1-308.7,38.6-462.7,34.1c-146.1-4.2-275.9-27.8-405.5-48.9C146.6,66.5,84.4,57.2,20.2,50.5C13.5,49.1,6.7,47.7,0,46.3
	v2.2v1.8L0,171H1920.5z"/>
<path style="fill:#FFFFFF;" d="M1920.5,171V57.3c-191.8-6.7-375,12.2-547.6,34.2c-15.9,2-31.8,4.1-47.7,6.1c-192.5,25-387.1,51.2-601.9,46.7
	C481,139.4,234,95.9,0,46.3L0,171H1920.5z"/>
<path class="st1" style="fill:#f6f7fb;" d="M723.3,144.4c214.9,4.4,409.4-21.8,601.9-46.7c15.9-2.1,31.8-4.1,47.7-6.1c172.6-22,355.8-41,547.6-34.2V0h0
	l-0.3,39c-114.1-20.2-257.5-20.6-391.4-10.3c-155.5,12-303.7,37.2-453.9,58.3c-150.2,21.1-308.7,38.6-462.7,34.1
	c-146.1-4.2-275.9-27.8-405.5-48.9C140.4,61.5,71.4,51.3,0,44.5v1.8C234,95.9,481,139.4,723.3,144.4z"/>
</symbol>
<symbol id="icon-wave-2" viewBox="0 0 1920.1 170">
<path style="transform:translate(0, 0px); opacity:1" d="M0,85L20,82.2C40,79,80,74,120,62.3C160,51,200,34,240,42.5C280,51,320,85,360,90.7C400,96,440,74,480,62.3C520,51,560,51,600,56.7C640,62,680,74,720,87.8C760,102,800,119,840,124.7C880,130,920,125,960,110.5C1000,96,1040,74,1080,68C1120,62,1160,74,1200,65.2C1240,57,1280,28,1320,34C1360,40,1400,79,1440,79.3C1480,79,1520,40,1560,22.7C1600,6,1640,11,1680,31.2C1720,51,1760,85,1800,96.3C1840,108,1880,96,1920,90.7C1960,85,2000,85,2040,82.2C2080,79,2120,74,2160,68C2200,62,2240,57,2280,56.7C2320,57,2360,62,2400,56.7C2440,51,2480,34,2520,28.3C2560,23,2600,28,2640,42.5C2680,57,2720,79,2760,85C2800,91,2840,79,2860,73.7L2880,68L2880,170L2860,170C2840,170,2800,170,2760,170C2720,170,2680,170,2640,170C2600,170,2560,170,2520,170C2480,170,2440,170,2400,170C2360,170,2320,170,2280,170C2240,170,2200,170,2160,170C2120,170,2080,170,2040,170C2000,170,1960,170,1920,170C1880,170,1840,170,1800,170C1760,170,1720,170,1680,170C1640,170,1600,170,1560,170C1520,170,1480,170,1440,170C1400,170,1360,170,1320,170C1280,170,1240,170,1200,170C1160,170,1120,170,1080,170C1040,170,1000,170,960,170C920,170,880,170,840,170C800,170,760,170,720,170C680,170,640,170,600,170C560,170,520,170,480,170C440,170,400,170,360,170C320,170,280,170,240,170C200,170,160,170,120,170C80,170,40,170,20,170L0,170Z"/>
</symbol>
<symbol id="icon-wave-3" viewBox="0 0 1920.1 50">
<path style="transform:translate(0, 0px); opacity:1" d="M0,88L160,55L320,77L480,11L640,88L800,66L960,33L1120,66L1280,0L1440,55L1600,11L1760,77L1920,44L2080,33L2240,11L2400,33L2560,99L2720,22L2880,33L3040,22L3200,44L3360,33L3520,99L3680,88L3840,0L3840,110L3680,110L3520,110L3360,110L3200,110L3040,110L2880,110L2720,110L2560,110L2400,110L2240,110L2080,110L1920,110L1760,110L1600,110L1440,110L1280,110L1120,110L960,110L800,110L640,110L480,110L320,110L160,110L0,110Z"/>
</symbol>
<symbol id="icon-dark-wave" viewBox="0 0 1920.1 171">
<path class="st0" style="fill:#0d0d0d;" d="M1920.5,171V61.3v-4V4h0l-0.3,39c-114.1-20.2-257.5-20.6-391.4-10.3c-155.5,12-303.7,37.2-453.9,58.3
	c-150.2,21.1-308.7,38.6-462.7,34.1c-146.1-4.2-275.9-27.8-405.5-48.9C146.6,66.5,84.4,57.2,20.2,50.5C13.5,49.1,6.7,47.7,0,46.3
	v2.2v1.8L0,171H1920.5z"/>
<path style="fill:#0d0d0d;" d="M1920.5,171V57.3c-191.8-6.7-375,12.2-547.6,34.2c-15.9,2-31.8,4.1-47.7,6.1c-192.5,25-387.1,51.2-601.9,46.7
	C481,139.4,234,95.9,0,46.3L0,171H1920.5z"/>
<path class="st1" style="fill:#1d1d1d;" d="M723.3,144.4c214.9,4.4,409.4-21.8,601.9-46.7c15.9-2.1,31.8-4.1,47.7-6.1c172.6-22,355.8-41,547.6-34.2V0h0
	l-0.3,39c-114.1-20.2-257.5-20.6-391.4-10.3c-155.5,12-303.7,37.2-453.9,58.3c-150.2,21.1-308.7,38.6-462.7,34.1
	c-146.1-4.2-275.9-27.8-405.5-48.9C140.4,61.5,71.4,51.3,0,44.5v1.8C234,95.9,481,139.4,723.3,144.4z"/>
</symbol>
<symbol id="icon-basket" viewBox="0 0 512 512">
<path d="m497 181h-52.791l-115.496-144.37c-5.174-6.467-14.613-7.518-21.083-2.342-6.469 5.175-7.518 14.614-2.342 21.083l100.503 125.629h-299.582l100.504-125.629c5.175-6.469 4.126-15.909-2.342-21.083-6.47-5.176-15.909-4.126-21.083 2.342l-115.497 144.37h-52.791c-8.284 0-15 6.716-15 15v30c0 8.284 6.716 15 15 15h482c8.284 0 15-6.716 15-15v-30c0-8.284-6.716-15-15-15z"/><path d="m90.577 470.121c1.84 6.44 7.726 10.879 14.423 10.879h302c6.697 0 12.583-4.439 14.423-10.879l56.891-199.121h-444.628zm234.127-66.586 15-90c1.362-8.172 9.09-13.696 17.262-12.33 8.172 1.362 13.692 9.09 12.33 17.262l-15 90c-1.223 7.337-7.578 12.537-14.778 12.537-.819 0-1.649-.067-2.484-.207-8.172-1.362-13.692-9.091-12.33-17.262zm-83.704-87.535c0-8.284 6.716-15 15-15s15 6.716 15 15v90c0 8.284-6.716 15-15 15s-15-6.716-15-15zm-84.966-14.795c8.173-1.361 15.9 4.158 17.262 12.33l15 90c1.362 8.171-4.158 15.9-12.33 17.262-.834.139-1.665.207-2.484.207-7.201 0-13.555-5.199-14.778-12.537l-15-90c-1.362-8.172 4.158-15.901 12.33-17.262z"/>
</symbol>
<symbol id="icon-bag" viewBox="0 0 512 512">
<path d="M447.988,139.696c-0.156-2.084-1.9-3.696-3.988-3.696h-72v-20C372,52.036,319.96,0,256,0S140,52.036,140,116v20H68
c-2.088,0-3.832,1.612-3.988,3.696l-28,368c-0.084,1.108,0.296,2.204,1.056,3.02C37.824,511.536,38.888,512,40,512h432
c1.112,0,2.176-0.464,2.932-1.28c0.756-0.816,1.14-1.912,1.056-3.02L447.988,139.696z M172,116c0-46.316,37.68-84,84-84
s84,37.684,84,84v20H172V116z M156,248c-22.06,0-40-17.944-40-40c0-15.964,8-30.348,24-36.66V208c0,8.824,7.18,16,16,16
s16-7.176,16-16v-36.636c16,6.312,24,20.804,24,36.636C196,230.056,178.06,248,156,248z M356,248c-22.06,0-40-17.944-40-40
c0-15.964,8-30.348,24-36.66V208c0,8.824,7.18,16,16,16s16-7.176,16-16v-36.636c16,6.312,24,20.804,24,36.636
C396,230.056,378.06,248,356,248z"/>
</symbol>
<symbol id="icon-behance" viewBox="0 0 37 32">
<path class="path1" d="M33 6.054h-9.125v2.214h9.125v-2.214zM28.5 13.661q-1.607 0-2.607 0.938t-1.107 2.545h7.286q-0.321-3.482-3.571-3.482zM28.786 24.107q1.125 0 2.179-0.571t1.357-1.554h3.946q-1.786 5.482-7.625 5.482-3.821 0-6.080-2.357t-2.259-6.196q0-3.714 2.33-6.17t6.009-2.455q2.464 0 4.295 1.214t2.732 3.196 0.902 4.429q0 0.304-0.036 0.839h-11.75q0 1.982 1.027 3.063t2.973 1.080zM4.946 23.214h5.286q3.661 0 3.661-2.982 0-3.214-3.554-3.214h-5.393v6.196zM4.946 13.625h5.018q1.393 0 2.205-0.652t0.813-2.027q0-2.571-3.393-2.571h-4.643v5.25zM0 4.536h10.607q1.554 0 2.768 0.25t2.259 0.848 1.607 1.723 0.563 2.75q0 3.232-3.071 4.696 2.036 0.571 3.071 2.054t1.036 3.643q0 1.339-0.438 2.438t-1.179 1.848-1.759 1.268-2.161 0.75-2.393 0.232h-10.911v-22.5z"></path>
</symbol>
<symbol id="icon-deviantart" viewBox="0 0 18 32">
<path class="path1" d="M18.286 5.411l-5.411 10.393 0.429 0.554h4.982v7.411h-9.054l-0.786 0.536-2.536 4.875-0.536 0.536h-5.375v-5.411l5.411-10.411-0.429-0.536h-4.982v-7.411h9.054l0.786-0.536 2.536-4.875 0.536-0.536h5.375v5.411z"></path>
</symbol>
<symbol id="icon-medium" viewBox="0 0 32 32">
<path class="path1" d="M10.661 7.518v20.946q0 0.446-0.223 0.759t-0.652 0.313q-0.304 0-0.589-0.143l-8.304-4.161q-0.375-0.179-0.634-0.598t-0.259-0.83v-20.357q0-0.357 0.179-0.607t0.518-0.25q0.25 0 0.786 0.268l9.125 4.571q0.054 0.054 0.054 0.089zM11.804 9.321l9.536 15.464-9.536-4.75v-10.714zM32 9.643v18.821q0 0.446-0.25 0.723t-0.679 0.277-0.839-0.232l-7.875-3.929zM31.946 7.5q0 0.054-4.58 7.491t-5.366 8.705l-6.964-11.321 5.786-9.411q0.304-0.5 0.929-0.5 0.25 0 0.464 0.107l9.661 4.821q0.071 0.036 0.071 0.107z"></path>
</symbol>
<symbol id="icon-slideshare" viewBox="0 0 32 32">
<path class="path1" d="M15.589 13.214q0 1.482-1.134 2.545t-2.723 1.063-2.723-1.063-1.134-2.545q0-1.5 1.134-2.554t2.723-1.054 2.723 1.054 1.134 2.554zM24.554 13.214q0 1.482-1.125 2.545t-2.732 1.063q-1.589 0-2.723-1.063t-1.134-2.545q0-1.5 1.134-2.554t2.723-1.054q1.607 0 2.732 1.054t1.125 2.554zM28.571 16.429v-11.911q0-1.554-0.571-2.205t-1.982-0.652h-19.857q-1.482 0-2.009 0.607t-0.527 2.25v12.018q0.768 0.411 1.58 0.714t1.446 0.5 1.446 0.33 1.268 0.196 1.25 0.071 1.045 0.009 1.009-0.036 0.795-0.036q1.214-0.018 1.696 0.482 0.107 0.107 0.179 0.161 0.464 0.446 1.089 0.911 0.125-1.625 2.107-1.554 0.089 0 0.652 0.027t0.768 0.036 0.813 0.018 0.946-0.018 0.973-0.080 1.089-0.152 1.107-0.241 1.196-0.348 1.205-0.482 1.286-0.616zM31.482 16.339q-2.161 2.661-6.643 4.5 1.5 5.089-0.411 8.304-1.179 2.018-3.268 2.643-1.857 0.571-3.25-0.268-1.536-0.911-1.464-2.929l-0.018-5.821v-0.018q-0.143-0.036-0.438-0.107t-0.42-0.089l-0.018 6.036q0.071 2.036-1.482 2.929-1.411 0.839-3.268 0.268-2.089-0.643-3.25-2.679-1.875-3.214-0.393-8.268-4.482-1.839-6.643-4.5-0.446-0.661-0.071-1.125t1.071 0.018q0.054 0.036 0.196 0.125t0.196 0.143v-12.393q0-1.286 0.839-2.196t2.036-0.911h22.446q1.196 0 2.036 0.911t0.839 2.196v12.393l0.375-0.268q0.696-0.482 1.071-0.018t-0.071 1.125z"></path>
</symbol>
<symbol id="icon-snapchat-ghost" viewBox="0 0 30 32">
<path class="path1" d="M15.143 2.286q2.393-0.018 4.295 1.223t2.92 3.438q0.482 1.036 0.482 3.196 0 0.839-0.161 3.411 0.25 0.125 0.5 0.125 0.321 0 0.911-0.241t0.911-0.241q0.518 0 1 0.321t0.482 0.821q0 0.571-0.563 0.964t-1.232 0.563-1.232 0.518-0.563 0.848q0 0.268 0.214 0.768 0.661 1.464 1.83 2.679t2.58 1.804q0.5 0.214 1.429 0.411 0.5 0.107 0.5 0.625 0 1.25-3.911 1.839-0.125 0.196-0.196 0.696t-0.25 0.83-0.589 0.33q-0.357 0-1.107-0.116t-1.143-0.116q-0.661 0-1.107 0.089-0.571 0.089-1.125 0.402t-1.036 0.679-1.036 0.723-1.357 0.598-1.768 0.241q-0.929 0-1.723-0.241t-1.339-0.598-1.027-0.723-1.036-0.679-1.107-0.402q-0.464-0.089-1.125-0.089-0.429 0-1.17 0.134t-1.045 0.134q-0.446 0-0.625-0.33t-0.25-0.848-0.196-0.714q-3.911-0.589-3.911-1.839 0-0.518 0.5-0.625 0.929-0.196 1.429-0.411 1.393-0.571 2.58-1.804t1.83-2.679q0.214-0.5 0.214-0.768 0-0.5-0.563-0.848t-1.241-0.527-1.241-0.563-0.563-0.938q0-0.482 0.464-0.813t0.982-0.33q0.268 0 0.857 0.232t0.946 0.232q0.321 0 0.571-0.125-0.161-2.536-0.161-3.393 0-2.179 0.482-3.214 1.143-2.446 3.071-3.536t4.714-1.125z"></path>
</symbol>
<symbol id="icon-yelp" viewBox="0 0 27 32">
<path class="path1" d="M13.804 23.554v2.268q-0.018 5.214-0.107 5.446-0.214 0.571-0.911 0.714-0.964 0.161-3.241-0.679t-2.902-1.589q-0.232-0.268-0.304-0.643-0.018-0.214 0.071-0.464 0.071-0.179 0.607-0.839t3.232-3.857q0.018 0 1.071-1.25 0.268-0.339 0.705-0.438t0.884 0.063q0.429 0.179 0.67 0.518t0.223 0.75zM11.143 19.071q-0.054 0.982-0.929 1.25l-2.143 0.696q-4.911 1.571-5.214 1.571-0.625-0.036-0.964-0.643-0.214-0.446-0.304-1.339-0.143-1.357 0.018-2.973t0.536-2.223 1-0.571q0.232 0 3.607 1.375 1.25 0.518 2.054 0.839l1.5 0.607q0.411 0.161 0.634 0.545t0.205 0.866zM25.893 24.375q-0.125 0.964-1.634 2.875t-2.42 2.268q-0.661 0.25-1.125-0.125-0.25-0.179-3.286-5.125l-0.839-1.375q-0.25-0.375-0.205-0.821t0.348-0.821q0.625-0.768 1.482-0.464 0.018 0.018 2.125 0.714 3.625 1.179 4.321 1.42t0.839 0.366q0.5 0.393 0.393 1.089zM13.893 13.089q0.089 1.821-0.964 2.179-1.036 0.304-2.036-1.268l-6.75-10.679q-0.143-0.625 0.339-1.107 0.732-0.768 3.705-1.598t4.009-0.563q0.714 0.179 0.875 0.804 0.054 0.321 0.393 5.455t0.429 6.777zM25.714 15.018q0.054 0.696-0.464 1.054-0.268 0.179-5.875 1.536-1.196 0.268-1.625 0.411l0.018-0.036q-0.411 0.107-0.821-0.071t-0.661-0.571q-0.536-0.839 0-1.554 0.018-0.018 1.339-1.821 2.232-3.054 2.679-3.643t0.607-0.696q0.5-0.339 1.161-0.036 0.857 0.411 2.196 2.384t1.446 2.991v0.054z"></path>
</symbol>
<symbol id="icon-vine" viewBox="0 0 27 32">
<path class="path1" d="M26.732 14.768v3.536q-1.804 0.411-3.536 0.411-1.161 2.429-2.955 4.839t-3.241 3.848-2.286 1.902q-1.429 0.804-2.893-0.054-0.5-0.304-1.080-0.777t-1.518-1.491-1.83-2.295-1.92-3.286-1.884-4.357-1.634-5.616-1.259-6.964h5.054q0.464 3.893 1.25 7.116t1.866 5.661 2.17 4.205 2.5 3.482q3.018-3.018 5.125-7.25-2.536-1.286-3.982-3.929t-1.446-5.946q0-3.429 1.857-5.616t5.071-2.188q3.179 0 4.875 1.884t1.696 5.313q0 2.839-1.036 5.107-0.125 0.018-0.348 0.054t-0.821 0.036-1.125-0.107-1.107-0.455-0.902-0.92q0.554-1.839 0.554-3.286 0-1.554-0.518-2.357t-1.411-0.804q-0.946 0-1.518 0.884t-0.571 2.509q0 3.321 1.875 5.241t4.768 1.92q1.107 0 2.161-0.25z"></path>
</symbol>
<symbol id="icon-vk" viewBox="0 0 35 32">
<path class="path1" d="M34.232 9.286q0.411 1.143-2.679 5.25-0.429 0.571-1.161 1.518-1.393 1.786-1.607 2.339-0.304 0.732 0.25 1.446 0.304 0.375 1.446 1.464h0.018l0.071 0.071q2.518 2.339 3.411 3.946 0.054 0.089 0.116 0.223t0.125 0.473-0.009 0.607-0.446 0.491-1.054 0.223l-4.571 0.071q-0.429 0.089-1-0.089t-0.929-0.393l-0.357-0.214q-0.536-0.375-1.25-1.143t-1.223-1.384-1.089-1.036-1.009-0.277q-0.054 0.018-0.143 0.063t-0.304 0.259-0.384 0.527-0.304 0.929-0.116 1.384q0 0.268-0.063 0.491t-0.134 0.33l-0.071 0.089q-0.321 0.339-0.946 0.393h-2.054q-1.268 0.071-2.607-0.295t-2.348-0.946-1.839-1.179-1.259-1.027l-0.446-0.429q-0.179-0.179-0.491-0.536t-1.277-1.625-1.893-2.696-2.188-3.768-2.33-4.857q-0.107-0.286-0.107-0.482t0.054-0.286l0.071-0.107q0.268-0.339 1.018-0.339l4.893-0.036q0.214 0.036 0.411 0.116t0.286 0.152l0.089 0.054q0.286 0.196 0.429 0.571 0.357 0.893 0.821 1.848t0.732 1.455l0.286 0.518q0.518 1.071 1 1.857t0.866 1.223 0.741 0.688 0.607 0.25 0.482-0.089q0.036-0.018 0.089-0.089t0.214-0.393 0.241-0.839 0.17-1.446 0-2.232q-0.036-0.714-0.161-1.304t-0.25-0.821l-0.107-0.214q-0.446-0.607-1.518-0.768-0.232-0.036 0.089-0.429 0.304-0.339 0.679-0.536 0.946-0.464 4.268-0.429 1.464 0.018 2.411 0.232 0.357 0.089 0.598 0.241t0.366 0.429 0.188 0.571 0.063 0.813-0.018 0.982-0.045 1.259-0.027 1.473q0 0.196-0.018 0.75t-0.009 0.857 0.063 0.723 0.205 0.696 0.402 0.438q0.143 0.036 0.304 0.071t0.464-0.196 0.679-0.616 0.929-1.196 1.214-1.92q1.071-1.857 1.911-4.018 0.071-0.179 0.179-0.313t0.196-0.188l0.071-0.054 0.089-0.045t0.232-0.054 0.357-0.009l5.143-0.036q0.696-0.089 1.143 0.045t0.554 0.295z"></path>
</symbol>
<symbol id="icon-search" viewBox="0 0 489.713 489.713">
<path d="M483.4,454.444l-121.3-121.4c28.7-35.2,46-80,46-128.9c0-112.5-91.5-204.1-204.1-204.1S0,91.644,0,204.144
		s91.5,204,204.1,204c48.8,0,93.7-17.3,128.9-46l121.3,121.3c8.3,8.3,20.9,8.3,29.2,0S491.8,462.744,483.4,454.444z M40.7,204.144
		c0-90.1,73.2-163.3,163.3-163.3s163.4,73.3,163.4,163.4s-73.3,163.4-163.4,163.4S40.7,294.244,40.7,204.144z"/>
</symbol>
<symbol id="icon-envelope-o" viewBox="0 0 230.17 230.17">
<path d="M230,49.585c0-0.263,0.181-0.519,0.169-0.779l-70.24,67.68l70.156,65.518c0.041-0.468-0.085-0.94-0.085-1.418V49.585z"/>
<path d="M149.207,126.901l-28.674,27.588c-1.451,1.396-3.325,2.096-5.2,2.096c-1.836,0-3.672-0.67-5.113-2.013l-28.596-26.647
L11.01,195.989c1.717,0.617,3.56,1.096,5.49,1.096h197.667c2.866,0,5.554-0.873,7.891-2.175L149.207,126.901z"/>
<path d="M115.251,138.757L222.447,35.496c-2.427-1.443-5.252-2.411-8.28-2.411H16.5c-3.943,0-7.556,1.531-10.37,3.866
L115.251,138.757z"/>
<path d="M0,52.1v128.484c0,1.475,0.339,2.897,0.707,4.256l69.738-67.156L0,52.1z"/>
</symbol>
<symbol id="icon-location-o" viewBox="0 0 512 512">
<path d="M256,0C161.896,0,85.333,76.563,85.333,170.667c0,28.25,7.063,56.26,20.49,81.104L246.667,506.5
c1.875,3.396,5.448,5.5,9.333,5.5s7.458-2.104,9.333-5.5l140.896-254.813c13.375-24.76,20.438-52.771,20.438-81.021
C426.667,76.563,350.104,0,256,0z M256,256c-47.052,0-85.333-38.281-85.333-85.333c0-47.052,38.281-85.333,85.333-85.333
s85.333,38.281,85.333,85.333C341.333,217.719,303.052,256,256,256z"/>
</symbol>
<symbol id="icon-phone-o" viewBox="0 0 482.6 482.6">
<path d="M499.66,376.96l-71.68-71.68c-25.6-25.6-69.12-15.359-79.36,17.92c-7.68,23.041-33.28,35.841-56.32,30.72
c-51.2-12.8-120.32-79.36-133.12-133.12c-7.68-23.041,7.68-48.641,30.72-56.32c33.28-10.24,43.52-53.76,17.92-79.36l-71.68-71.68
c-20.48-17.92-51.2-17.92-69.12,0l-48.64,48.64c-48.64,51.2,5.12,186.88,125.44,307.2c120.32,120.32,256,176.641,307.2,125.44
l48.64-48.64C517.581,425.6,517.581,394.88,499.66,376.96z"/>
<symbol id="icon-close" viewBox="0 0 612 612">
<polygon points="612,36.004 576.521,0.603 306,270.608 35.478,0.603 0,36.004 270.522,306.011 0,575.997 35.478,611.397 306,341.411 576.521,611.397 612,575.997 341.459,306.011"/>
</symbol>
<symbol id="icon-angle-down" viewBox="0 0 21 32">
<path class="path1" d="M19.196 13.143q0 0.232-0.179 0.411l-8.321 8.321q-0.179 0.179-0.411 0.179t-0.411-0.179l-8.321-8.321q-0.179-0.179-0.179-0.411t0.179-0.411l0.893-0.893q0.179-0.179 0.411-0.179t0.411 0.179l7.018 7.018 7.018-7.018q0.179-0.179 0.411-0.179t0.411 0.179l0.893 0.893q0.179 0.179 0.179 0.411z"></path>
</symbol>
<symbol id="icon-folder-open" viewBox="0 0 34 32">
<path class="path1" d="M33.554 17q0 0.554-0.554 1.179l-6 7.071q-0.768 0.911-2.152 1.545t-2.563 0.634h-19.429q-0.607 0-1.080-0.232t-0.473-0.768q0-0.554 0.554-1.179l6-7.071q0.768-0.911 2.152-1.545t2.563-0.634h19.429q0.607 0 1.080 0.232t0.473 0.768zM27.429 10.857v2.857h-14.857q-1.679 0-3.518 0.848t-2.929 2.134l-6.107 7.179q0-0.071-0.009-0.223t-0.009-0.223v-17.143q0-1.643 1.179-2.821t2.821-1.179h5.714q1.643 0 2.821 1.179t1.179 2.821v0.571h9.714q1.643 0 2.821 1.179t1.179 2.821z"></path>
</symbol>
<symbol id="icon-twitter" viewBox="0 0 30 32">
<path class="path1" d="M28.929 7.286q-1.196 1.75-2.893 2.982 0.018 0.25 0.018 0.75 0 2.321-0.679 4.634t-2.063 4.437-3.295 3.759-4.607 2.607-5.768 0.973q-4.839 0-8.857-2.589 0.625 0.071 1.393 0.071 4.018 0 7.161-2.464-1.875-0.036-3.357-1.152t-2.036-2.848q0.589 0.089 1.089 0.089 0.768 0 1.518-0.196-2-0.411-3.313-1.991t-1.313-3.67v-0.071q1.214 0.679 2.607 0.732-1.179-0.786-1.875-2.054t-0.696-2.75q0-1.571 0.786-2.911 2.161 2.661 5.259 4.259t6.634 1.777q-0.143-0.679-0.143-1.321 0-2.393 1.688-4.080t4.080-1.688q2.5 0 4.214 1.821 1.946-0.375 3.661-1.393-0.661 2.054-2.536 3.179 1.661-0.179 3.321-0.893z"></path>
</symbol>
<symbol id="icon-facebook" viewBox="0 0 19 32">
<path class="path1" d="M17.125 0.214v4.714h-2.804q-1.536 0-2.071 0.643t-0.536 1.929v3.375h5.232l-0.696 5.286h-4.536v13.554h-5.464v-13.554h-4.554v-5.286h4.554v-3.893q0-3.321 1.857-5.152t4.946-1.83q2.625 0 4.071 0.214z"></path>
</symbol>
<symbol id="icon-github" viewBox="0 0 27 32">
<path class="path1" d="M13.714 2.286q3.732 0 6.884 1.839t4.991 4.991 1.839 6.884q0 4.482-2.616 8.063t-6.759 4.955q-0.482 0.089-0.714-0.125t-0.232-0.536q0-0.054 0.009-1.366t0.009-2.402q0-1.732-0.929-2.536 1.018-0.107 1.83-0.321t1.679-0.696 1.446-1.188 0.946-1.875 0.366-2.688q0-2.125-1.411-3.679 0.661-1.625-0.143-3.643-0.5-0.161-1.446 0.196t-1.643 0.786l-0.679 0.429q-1.661-0.464-3.429-0.464t-3.429 0.464q-0.286-0.196-0.759-0.482t-1.491-0.688-1.518-0.241q-0.804 2.018-0.143 3.643-1.411 1.554-1.411 3.679 0 1.518 0.366 2.679t0.938 1.875 1.438 1.196 1.679 0.696 1.83 0.321q-0.696 0.643-0.875 1.839-0.375 0.179-0.804 0.268t-1.018 0.089-1.17-0.384-0.991-1.116q-0.339-0.571-0.866-0.929t-0.884-0.429l-0.357-0.054q-0.375 0-0.518 0.080t-0.089 0.205 0.161 0.25 0.232 0.214l0.125 0.089q0.393 0.179 0.777 0.679t0.563 0.911l0.179 0.411q0.232 0.679 0.786 1.098t1.196 0.536 1.241 0.125 0.991-0.063l0.411-0.071q0 0.679 0.009 1.58t0.009 0.973q0 0.321-0.232 0.536t-0.714 0.125q-4.143-1.375-6.759-4.955t-2.616-8.063q0-3.732 1.839-6.884t4.991-4.991 6.884-1.839zM5.196 21.982q0.054-0.125-0.125-0.214-0.179-0.054-0.232 0.036-0.054 0.125 0.125 0.214 0.161 0.107 0.232-0.036zM5.75 22.589q0.125-0.089-0.036-0.286-0.179-0.161-0.286-0.054-0.125 0.089 0.036 0.286 0.179 0.179 0.286 0.054zM6.286 23.393q0.161-0.125 0-0.339-0.143-0.232-0.304-0.107-0.161 0.089 0 0.321t0.304 0.125zM7.036 24.143q0.143-0.143-0.071-0.339-0.214-0.214-0.357-0.054-0.161 0.143 0.071 0.339 0.214 0.214 0.357 0.054zM8.054 24.589q0.054-0.196-0.232-0.286-0.268-0.071-0.339 0.125t0.232 0.268q0.268 0.107 0.339-0.107zM9.179 24.679q0-0.232-0.304-0.196-0.286 0-0.286 0.196 0 0.232 0.304 0.196 0.286 0 0.286-0.196zM10.214 24.5q-0.036-0.196-0.321-0.161-0.286 0.054-0.25 0.268t0.321 0.143 0.25-0.25z"></path>
</symbol>
<symbol id="icon-menu" viewBox="0 0 40 40">
<rect y="7" width="40" height="2"/>
<rect y="19" width="40" height="2"/>
<rect y="31" width="40" height="2"/>
</symbol>
<symbol id="icon-google-plus" viewBox="0 0 41 32">
<path class="path1" d="M25.661 16.304q0 3.714-1.554 6.616t-4.429 4.536-6.589 1.634q-2.661 0-5.089-1.036t-4.179-2.786-2.786-4.179-1.036-5.089 1.036-5.089 2.786-4.179 4.179-2.786 5.089-1.036q5.107 0 8.768 3.429l-3.554 3.411q-2.089-2.018-5.214-2.018-2.196 0-4.063 1.107t-2.955 3.009-1.089 4.152 1.089 4.152 2.955 3.009 4.063 1.107q1.482 0 2.723-0.411t2.045-1.027 1.402-1.402 0.875-1.482 0.384-1.321h-7.429v-4.5h12.357q0.214 1.125 0.214 2.179zM41.143 14.125v3.75h-3.732v3.732h-3.75v-3.732h-3.732v-3.75h3.732v-3.732h3.75v3.732h3.732z"></path>
</symbol>
<symbol id="icon-linkedin" viewBox="0 0 27 32">
<path class="path1" d="M6.232 11.161v17.696h-5.893v-17.696h5.893zM6.607 5.696q0.018 1.304-0.902 2.179t-2.42 0.875h-0.036q-1.464 0-2.357-0.875t-0.893-2.179q0-1.321 0.92-2.188t2.402-0.866 2.375 0.866 0.911 2.188zM27.429 18.714v10.143h-5.875v-9.464q0-1.875-0.723-2.938t-2.259-1.063q-1.125 0-1.884 0.616t-1.134 1.527q-0.196 0.536-0.196 1.446v9.875h-5.875q0.036-7.125 0.036-11.554t-0.018-5.286l-0.018-0.857h5.875v2.571h-0.036q0.357-0.571 0.732-1t1.009-0.929 1.554-0.777 2.045-0.277q3.054 0 4.911 2.027t1.857 5.938z"></path>
</symbol>
<symbol id="icon-quote-right" viewBox="0 0 30 32">
<path class="path1" d="M13.714 5.714v12.571q0 1.857-0.723 3.545t-1.955 2.92-2.92 1.955-3.545 0.723h-1.143q-0.464 0-0.804-0.339t-0.339-0.804v-2.286q0-0.464 0.339-0.804t0.804-0.339h1.143q1.893 0 3.232-1.339t1.339-3.232v-0.571q0-0.714-0.5-1.214t-1.214-0.5h-4q-1.429 0-2.429-1t-1-2.429v-6.857q0-1.429 1-2.429t2.429-1h6.857q1.429 0 2.429 1t1 2.429zM29.714 5.714v12.571q0 1.857-0.723 3.545t-1.955 2.92-2.92 1.955-3.545 0.723h-1.143q-0.464 0-0.804-0.339t-0.339-0.804v-2.286q0-0.464 0.339-0.804t0.804-0.339h1.143q1.893 0 3.232-1.339t1.339-3.232v-0.571q0-0.714-0.5-1.214t-1.214-0.5h-4q-1.429 0-2.429-1t-1-2.429v-6.857q0-1.429 1-2.429t2.429-1h6.857q1.429 0 2.429 1t1 2.429z"></path>
</symbol>
<symbol id="icon-mail-reply" viewBox="0 0 32 32">
<path class="path1" d="M32 20q0 2.964-2.268 8.054-0.054 0.125-0.188 0.429t-0.241 0.536-0.232 0.393q-0.214 0.304-0.5 0.304-0.268 0-0.42-0.179t-0.152-0.446q0-0.161 0.045-0.473t0.045-0.42q0.089-1.214 0.089-2.196 0-1.804-0.313-3.232t-0.866-2.473-1.429-1.804-1.884-1.241-2.375-0.759-2.75-0.384-3.134-0.107h-4v4.571q0 0.464-0.339 0.804t-0.804 0.339-0.804-0.339l-9.143-9.143q-0.339-0.339-0.339-0.804t0.339-0.804l9.143-9.143q0.339-0.339 0.804-0.339t0.804 0.339 0.339 0.804v4.571h4q12.732 0 15.625 7.196 0.946 2.393 0.946 5.946z"></path>
</symbol>
<symbol id="icon-youtube" viewBox="0 0 24 24">
<path d="m23.469 5.929.03.196c-.29-1.029-1.073-1.823-2.068-2.112l-.021-.005c-1.871-.508-9.4-.508-9.4-.508s-7.51-.01-9.4.508c-1.014.294-1.798 1.088-2.083 2.096l-.005.021c-.699 3.651-.704 8.038.031 11.947l-.031-.198c.29 1.029 1.073 1.823 2.068 2.112l.021.005c1.869.509 9.4.509 9.4.509s7.509 0 9.4-.509c1.015-.294 1.799-1.088 2.084-2.096l.005-.021c.318-1.698.5-3.652.5-5.648 0-.073 0-.147-.001-.221.001-.068.001-.149.001-.23 0-1.997-.182-3.951-.531-5.846zm-13.861 9.722v-7.293l6.266 3.652z"/>
</symbol>
<symbol id="icon-tiktok" viewBox="0 0 512 512">
<path d="m480.32 128.39c-29.22 0-56.18-9.68-77.83-26.01-24.83-18.72-42.67-46.18-48.97-77.83-1.56-7.82-2.4-15.89-2.48-24.16h-83.47v228.08l-.1 124.93c0 33.4-21.75 61.72-51.9 71.68-8.75 2.89-18.2 4.26-28.04 3.72-12.56-.69-24.33-4.48-34.56-10.6-21.77-13.02-36.53-36.64-36.93-63.66-.63-42.23 33.51-76.66 75.71-76.66 8.33 0 16.33 1.36 23.82 3.83v-62.34-22.41c-7.9-1.17-15.94-1.78-24.07-1.78-46.19 0-89.39 19.2-120.27 53.79-23.34 26.14-37.34 59.49-39.5 94.46-2.83 45.94 13.98 89.61 46.58 121.83 4.79 4.73 9.82 9.12 15.08 13.17 27.95 21.51 62.12 33.17 98.11 33.17 8.13 0 16.17-.6 24.07-1.77 33.62-4.98 64.64-20.37 89.12-44.57 30.08-29.73 46.7-69.2 46.88-111.21l-.43-186.56c14.35 11.07 30.04 20.23 46.88 27.34 26.19 11.05 53.96 16.65 82.54 16.64v-60.61-22.49c.02.02-.22.02-.24.02z"/>
</symbol>
<symbol id="icon-dropbox" viewBox="0 0 32 32">
<path class="path1" d="M7.179 12.625l8.821 5.446-6.107 5.089-8.75-5.696zM24.786 22.536v1.929l-8.75 5.232v0.018l-0.018-0.018-0.018 0.018v-0.018l-8.732-5.232v-1.929l2.625 1.714 6.107-5.071v-0.036l0.018 0.018 0.018-0.018v0.036l6.125 5.071zM9.893 2.107l6.107 5.089-8.821 5.429-6.036-4.821zM24.821 12.625l6.036 4.839-8.732 5.696-6.125-5.089zM22.125 2.107l8.732 5.696-6.036 4.821-8.821-5.429z"></path>
</symbol>
<symbol id="icon-instagram" viewBox="-21 -21 682.66669 682.66669">
<path d="m0 132.976562v374.046876c0 73.441406 59.535156 132.976562 132.976562 132.976562h374.046876c73.441406 0 132.976562-59.535156 132.976562-132.976562v-374.046876c0-73.441406-59.535156-132.976562-132.976562-132.976562h-374.046876c-73.441406 0-132.976562 59.535156-132.976562 132.976562zm387.792969 368.359376c-157.855469 54.464843-303.59375-91.273438-249.128907-249.128907 18.351563-53.203125 60.335938-95.191406 113.539063-113.542969 157.859375-54.464843 303.597656 91.273438 249.132813 249.132813-18.351563 53.203125-60.335938 95.1875-113.542969 113.539063zm154.28125-374.859376c-2.511719 13.152344-13.394531 20.804688-24.652344 20.804688-6.851563 0-13.835937-2.828125-19.183594-8.964844-.472656-.542968-.914062-1.125-1.304687-1.730468-5.519532-8.4375-5.691406-18.460938-1-26.589844 3.320312-5.753906 8.679687-9.863282 15.097656-11.582032 6.410156-1.726562 13.113281-.839843 18.859375 2.484376 8.132813 4.6875 12.992187 13.457031 12.4375 23.511718-.039063.6875-.121094 1.386719-.253906 2.066406zm0 0"/><path d="m320 164.523438c-85.734375 0-155.476562 69.742187-155.476562 155.476562s69.742187 155.476562 155.476562 155.476562 155.476562-69.742187 155.476562-155.476562-69.742187-155.476562-155.476562-155.476562zm0 0"/>
</symbol>
<symbol id="icon-flickr" viewBox="0 0 27 32">
<path class="path1" d="M22.286 2.286q2.125 0 3.634 1.509t1.509 3.634v17.143q0 2.125-1.509 3.634t-3.634 1.509h-17.143q-2.125 0-3.634-1.509t-1.509-3.634v-17.143q0-2.125 1.509-3.634t3.634-1.509h17.143zM12.464 16q0-1.571-1.107-2.679t-2.679-1.107-2.679 1.107-1.107 2.679 1.107 2.679 2.679 1.107 2.679-1.107 1.107-2.679zM22.536 16q0-1.571-1.107-2.679t-2.679-1.107-2.679 1.107-1.107 2.679 1.107 2.679 2.679 1.107 2.679-1.107 1.107-2.679z"></path>
</symbol>
<symbol id="icon-tumblr" viewBox="0 0 19 32">
<path class="path1" d="M16.857 23.732l1.429 4.232q-0.411 0.625-1.982 1.179t-3.161 0.571q-1.857 0.036-3.402-0.464t-2.545-1.321-1.696-1.893-0.991-2.143-0.295-2.107v-9.714h-3v-3.839q1.286-0.464 2.304-1.241t1.625-1.607 1.036-1.821 0.607-1.768 0.268-1.58q0.018-0.089 0.080-0.152t0.134-0.063h4.357v7.571h5.946v4.5h-5.964v9.25q0 0.536 0.116 1t0.402 0.938 0.884 0.741 1.455 0.25q1.393-0.036 2.393-0.518z"></path>
</symbol>
<symbol id="icon-deezer" viewBox="0 0 97.75 97.75">
<path d="M48.875,0C21.883,0,0,21.882,0,48.875S21.883,97.75,48.875,97.75S97.75,75.868,97.75,48.875S75.867,0,48.875,0z
M25.676,69.248H12.365v-4.033h13.311V69.248z M25.676,64.006H12.365V59.97h13.311V64.006z M25.676,58.762H12.365v-4.035h13.311
V58.762z M25.676,53.516H12.365v-4.033h13.311V53.516z M25.676,48.271H12.365v-4.034h13.311V48.271z M40.604,69.248H27.291v-4.033
h13.313V69.248z M40.604,64.006H27.291V59.97h13.313V64.006z M40.604,58.762H27.291v-4.035h13.313V58.762z M55.531,69.248H42.219
v-4.033h13.313L55.531,69.248L55.531,69.248z M55.531,64.006H42.219V59.97h13.313L55.531,64.006L55.531,64.006z M55.531,58.762
H42.219v-4.035h13.313L55.531,58.762L55.531,58.762z M55.531,53.516H42.219v-4.033h13.313L55.531,53.516L55.531,53.516z
M55.531,48.271H42.219v-4.034h13.313L55.531,48.271L55.531,48.271z M55.531,43.026H42.219v-4.034h13.313L55.531,43.026
L55.531,43.026z M55.531,37.783H42.219v-4.035h13.313L55.531,37.783L55.531,37.783z M70.457,69.248H57.145v-4.033h13.313
L70.457,69.248L70.457,69.248z M70.457,64.006H57.145V59.97h13.313L70.457,64.006L70.457,64.006z M70.457,58.762H57.145v-4.035
h13.313L70.457,58.762L70.457,58.762z M70.457,53.516H57.145v-4.033h13.313L70.457,53.516L70.457,53.516z M70.457,48.271H57.145
v-4.034h13.313L70.457,48.271L70.457,48.271z M85.385,69.248H72.072v-4.033h13.312V69.248z M85.385,64.006H72.072V59.97h13.312
V64.006z M85.385,58.759H72.072v-4.034h13.312V58.759z M85.385,53.516H72.072V49.48h13.312V53.516z M85.385,48.271H72.072v-4.037
h13.312V48.271z M85.385,43.025H72.072v-4.033h13.312V43.025z M85.385,37.78H72.072v-4.033h13.312V37.78z M72.072,32.536v-4.034
h13.312v4.034H72.072z"/>
</symbol>
<symbol id="icon-dribbble" viewBox="0 0 512 512">
<path d="m392.425781 114.992188c15.664063-17.457032 24.796875-35.734376 28-54.496094-44.292969-37.089844-101.269531-60.496094-163.425781-60.496094-32.09375 0-62.699219 6.210938-91.011719 17.078125 47.410157 47.5 87.058594 103.742187 118.070313 164.453125 45.695312-16.523438 83.78125-39.128906 108.367187-66.539062zm0 0"/><path d="m414.75 135.03125c-27.519531 30.671875-68.425781 55.617188-117.296875 73.746094 6.074219 13.320312 11.65625 26.917968 16.910156 40.691406 25.097657-5.398438 51.109375-8.46875 77.636719-8.46875 41.761719 0 82.332031 7.085938 119.742188 20.109375.035156-1.714844.257812-3.382813.257812-5.109375 0-66.035156-25.445312-126.09375-66.773438-171.429688-6.097656 17.570313-16.21875 34.574219-30.476562 50.460938zm0 0"/><path d="m5.847656 202.113281c31.886719 5.636719 67.214844 8.886719 101.152344 8.886719 52.609375 0 103.144531-7.46875 148.183594-20.296875-31.035156-59.628906-70.933594-114.507813-118.554688-160.402344-64.808594 34.855469-114.8125 97.925781-130.78125 171.8125zm0 0"/><path d="m509.15625 291.996094c-36.1875-13.621094-76.015625-20.996094-117.15625-20.996094-23.0625 0-45.710938 2.417969-67.554688 6.832031 22.175782 66.503907 35.007813 138.386719 37.199219 211.453125 78.015625-35.292968 135.042969-109.632812 147.511719-197.289062zm0 0"/><path d="m0 256c0 78.890625 38.027344 150.511719 94.472656 197.320312 5.980469-39.785156 23.917969-78.925781 53.132813-111.683593 34.75-38.960938 82.972656-68.136719 137.582031-84.789063-5.082031-13.109375-10.632812-25.960937-16.492188-38.632812-48.796874 14.472656-103.757812 22.785156-161.695312 22.785156-35.445312 0-72.332031-3.386719-105.769531-9.261719-.757813 7.996094-1.230469 16.074219-1.230469 24.261719zm0 0"/><path d="m170.003906 361.601562c-29.511718 33.09375-45.5 71.90625-47.550781 111.613282 39.113281 24.425781 85.132813 38.785156 134.546875 38.785156 25.980469 0 51.046875-3.953125 74.683594-11.207031-1.148438-74.6875-13.6875-148.125-36.484375-215.71875-49.902344 14.964843-93.796875 41.320312-125.195313 76.527343zm0 0"/>
</symbol>
<symbol id="icon-skype" viewBox="0 0 27 32">
<path class="path1" d="M20.946 18.982q0-0.893-0.348-1.634t-0.866-1.223-1.304-0.875-1.473-0.607-1.563-0.411l-1.857-0.429q-0.536-0.125-0.786-0.188t-0.625-0.205-0.536-0.286-0.295-0.375-0.134-0.536q0-1.375 2.571-1.375 0.768 0 1.375 0.214t0.964 0.509 0.679 0.598 0.714 0.518 0.857 0.214q0.839 0 1.348-0.571t0.509-1.375q0-0.982-1-1.777t-2.536-1.205-3.25-0.411q-1.214 0-2.357 0.277t-2.134 0.839-1.589 1.554-0.598 2.295q0 1.089 0.339 1.902t1 1.348 1.429 0.866 1.839 0.58l2.607 0.643q1.607 0.393 2 0.643 0.571 0.357 0.571 1.071 0 0.696-0.714 1.152t-1.875 0.455q-0.911 0-1.634-0.286t-1.161-0.688-0.813-0.804-0.821-0.688-0.964-0.286q-0.893 0-1.348 0.536t-0.455 1.339q0 1.643 2.179 2.813t5.196 1.17q1.304 0 2.5-0.33t2.188-0.955 1.58-1.67 0.589-2.348zM27.429 22.857q0 2.839-2.009 4.848t-4.848 2.009q-2.321 0-4.179-1.429-1.375 0.286-2.679 0.286-2.554 0-4.884-0.991t-4.018-2.679-2.679-4.018-0.991-4.884q0-1.304 0.286-2.679-1.429-1.857-1.429-4.179 0-2.839 2.009-4.848t4.848-2.009q2.321 0 4.179 1.429 1.375-0.286 2.679-0.286 2.554 0 4.884 0.991t4.018 2.679 2.679 4.018 0.991 4.884q0 1.304-0.286 2.679 1.429 1.857 1.429 4.179z"></path>
</symbol>
<symbol id="icon-foursquare" viewBox="0 0 23 32">
<path class="path1" d="M17.857 7.75l0.661-3.464q0.089-0.411-0.161-0.714t-0.625-0.304h-12.714q-0.411 0-0.688 0.304t-0.277 0.661v19.661q0 0.125 0.107 0.018l5.196-6.286q0.411-0.464 0.679-0.598t0.857-0.134h4.268q0.393 0 0.661-0.259t0.321-0.527q0.429-2.321 0.661-3.411 0.071-0.375-0.205-0.714t-0.652-0.339h-5.25q-0.518 0-0.857-0.339t-0.339-0.857v-0.75q0-0.518 0.339-0.848t0.857-0.33h6.179q0.321 0 0.625-0.241t0.357-0.527zM21.911 3.786q-0.268 1.304-0.955 4.759t-1.241 6.25-0.625 3.098q-0.107 0.393-0.161 0.58t-0.25 0.58-0.438 0.589-0.688 0.375-1.036 0.179h-4.839q-0.232 0-0.393 0.179-0.143 0.161-7.607 8.821-0.393 0.446-1.045 0.509t-0.866-0.098q-0.982-0.393-0.982-1.75v-25.179q0-0.982 0.679-1.83t2.143-0.848h15.857q1.696 0 2.268 0.946t0.179 2.839zM21.911 3.786l-2.821 14.107q0.071-0.304 0.625-3.098t1.241-6.25 0.955-4.759z"></path>
</symbol>
<symbol id="icon-wordpress" viewBox="0 0 32 32">
<path class="path1" d="M2.268 16q0-2.911 1.196-5.589l6.554 17.946q-3.5-1.696-5.625-5.018t-2.125-7.339zM25.268 15.304q0 0.339-0.045 0.688t-0.179 0.884-0.205 0.786-0.313 1.054-0.313 1.036l-1.357 4.571-4.964-14.75q0.821-0.054 1.571-0.143 0.339-0.036 0.464-0.33t-0.045-0.554-0.509-0.241l-3.661 0.179q-1.339-0.018-3.607-0.179-0.214-0.018-0.366 0.089t-0.205 0.268-0.027 0.33 0.161 0.295 0.348 0.143l1.429 0.143 2.143 5.857-3 9-5-14.857q0.821-0.054 1.571-0.143 0.339-0.036 0.464-0.33t-0.045-0.554-0.509-0.241l-3.661 0.179q-0.125 0-0.411-0.009t-0.464-0.009q1.875-2.857 4.902-4.527t6.563-1.67q2.625 0 5.009 0.946t4.259 2.661h-0.179q-0.982 0-1.643 0.723t-0.661 1.705q0 0.214 0.036 0.429t0.071 0.384 0.143 0.411 0.161 0.375 0.214 0.402 0.223 0.375 0.259 0.429 0.25 0.411q1.125 1.911 1.125 3.786zM16.232 17.196l4.232 11.554q0.018 0.107 0.089 0.196-2.25 0.786-4.554 0.786-2 0-3.875-0.571zM28.036 9.411q1.696 3.107 1.696 6.589 0 3.732-1.857 6.884t-4.982 4.973l4.196-12.107q1.054-3.018 1.054-4.929 0-0.75-0.107-1.411zM16 0q3.25 0 6.214 1.268t5.107 3.411 3.411 5.107 1.268 6.214-1.268 6.214-3.411 5.107-5.107 3.411-6.214 1.268-6.214-1.268-5.107-3.411-3.411-5.107-1.268-6.214 1.268-6.214 3.411-5.107 5.107-3.411 6.214-1.268zM16 31.268q3.089 0 5.92-1.214t4.875-3.259 3.259-4.875 1.214-5.92-1.214-5.92-3.259-4.875-4.875-3.259-5.92-1.214-5.92 1.214-4.875 3.259-3.259 4.875-1.214 5.92 1.214 5.92 3.259 4.875 4.875 3.259 5.92 1.214z"></path>
</symbol>
<symbol id="icon-stumbleupon" viewBox="0 0 34 32">
<path class="path1" d="M18.964 12.714v-2.107q0-0.75-0.536-1.286t-1.286-0.536-1.286 0.536-0.536 1.286v10.929q0 3.125-2.25 5.339t-5.411 2.214q-3.179 0-5.42-2.241t-2.241-5.42v-4.75h5.857v4.679q0 0.768 0.536 1.295t1.286 0.527 1.286-0.527 0.536-1.295v-11.071q0-3.054 2.259-5.214t5.384-2.161q3.143 0 5.393 2.179t2.25 5.25v2.429l-3.482 1.036zM28.429 16.679h5.857v4.75q0 3.179-2.241 5.42t-5.42 2.241q-3.161 0-5.411-2.223t-2.25-5.366v-4.786l2.339 1.089 3.482-1.036v4.821q0 0.75 0.536 1.277t1.286 0.527 1.286-0.527 0.536-1.277v-4.911z"></path>
</symbol>
<symbol id="icon-digg" viewBox="0 0 37 32">
<path class="path1" d="M5.857 5.036h3.643v17.554h-9.5v-12.446h5.857v-5.107zM5.857 19.661v-6.589h-2.196v6.589h2.196zM10.964 10.143v12.446h3.661v-12.446h-3.661zM10.964 5.036v3.643h3.661v-3.643h-3.661zM16.089 10.143h9.518v16.821h-9.518v-2.911h5.857v-1.464h-5.857v-12.446zM21.946 19.661v-6.589h-2.196v6.589h2.196zM27.071 10.143h9.5v16.821h-9.5v-2.911h5.839v-1.464h-5.839v-12.446zM32.911 19.661v-6.589h-2.196v6.589h2.196z"></path>
</symbol>
<symbol id="icon-spotify" viewBox="0 0 27 32">
<path class="path1" d="M20.125 21.607q0-0.571-0.536-0.911-3.446-2.054-7.982-2.054-2.375 0-5.125 0.607-0.75 0.161-0.75 0.929 0 0.357 0.241 0.616t0.634 0.259q0.089 0 0.661-0.143 2.357-0.482 4.339-0.482 4.036 0 7.089 1.839 0.339 0.196 0.589 0.196 0.339 0 0.589-0.241t0.25-0.616zM21.839 17.768q0-0.714-0.625-1.089-4.232-2.518-9.786-2.518-2.732 0-5.411 0.75-0.857 0.232-0.857 1.143 0 0.446 0.313 0.759t0.759 0.313q0.125 0 0.661-0.143 2.179-0.589 4.482-0.589 4.982 0 8.714 2.214 0.429 0.232 0.679 0.232 0.446 0 0.759-0.313t0.313-0.759zM23.768 13.339q0-0.839-0.714-1.25-2.25-1.304-5.232-1.973t-6.125-0.67q-3.643 0-6.5 0.839-0.411 0.125-0.688 0.455t-0.277 0.866q0 0.554 0.366 0.929t0.92 0.375q0.196 0 0.714-0.143 2.375-0.661 5.482-0.661 2.839 0 5.527 0.607t4.527 1.696q0.375 0.214 0.714 0.214 0.518 0 0.902-0.366t0.384-0.92zM27.429 16q0 3.732-1.839 6.884t-4.991 4.991-6.884 1.839-6.884-1.839-4.991-4.991-1.839-6.884 1.839-6.884 4.991-4.991 6.884-1.839 6.884 1.839 4.991 4.991 1.839 6.884z"></path>
</symbol>
<symbol id="icon-soundcloud" viewBox="0 0 97.75 97.75">
<path d="M48.875,0C21.883,0,0,21.882,0,48.875S21.883,97.75,48.875,97.75S97.75,75.868,97.75,48.875S75.867,0,48.875,0z
M7.739,62.171C7.712,62.364,7.573,62.5,7.399,62.5c-0.175,0-0.315-0.136-0.339-0.331l-0.621-4.633l0.621-4.713
c0.023-0.196,0.164-0.333,0.339-0.333c0.174,0,0.313,0.136,0.34,0.33l0.736,4.717L7.739,62.171z M10.893,64.991
c-0.03,0.2-0.176,0.342-0.354,0.342c-0.18,0-0.328-0.144-0.353-0.343l-0.834-7.454l0.834-7.622
c0.024-0.199,0.173-0.344,0.353-0.344c0.179,0,0.324,0.141,0.354,0.344l0.948,7.622L10.893,64.991z M14.298,66.252
c-0.026,0.241-0.205,0.415-0.426,0.415c-0.224,0-0.402-0.174-0.425-0.417l-0.792-8.712c0,0,0.792-9.043,0.792-9.044
c0.022-0.241,0.201-0.416,0.425-0.416c0.221,0,0.399,0.175,0.426,0.416l0.899,9.044L14.298,66.252z M17.732,66.529
c-0.024,0.277-0.238,0.488-0.497,0.488c-0.264,0-0.479-0.211-0.5-0.488l-0.748-8.989l0.748-9.292c0.021-0.28,0.236-0.49,0.5-0.49
c0.259,0,0.473,0.21,0.497,0.487l0.85,9.294L17.732,66.529z M21.193,66.604c-0.021,0.318-0.268,0.562-0.57,0.562
c-0.305,0-0.551-0.243-0.571-0.562l-0.706-9.063l0.706-8.619c0.021-0.321,0.267-0.563,0.571-0.563c0.303,0,0.549,0.242,0.57,0.56
l0.801,8.623L21.193,66.604z M24.682,66.607v-0.004c-0.021,0.355-0.302,0.636-0.643,0.636c-0.344,0-0.625-0.28-0.644-0.634
l-0.661-9.062l0.661-14.024c0.019-0.357,0.3-0.636,0.644-0.636c0.341,0,0.622,0.279,0.643,0.635l0.75,14.025L24.682,66.607z
M28.145,66.6v-0.005c-0.018,0.398-0.333,0.708-0.716,0.708c-0.384,0-0.698-0.31-0.713-0.705l-0.622-9.007
c0,0,0.619-17.229,0.619-17.23c0.018-0.397,0.332-0.708,0.716-0.708c0.383,0,0.698,0.311,0.716,0.708l0.701,17.23L28.145,66.6z
M31.74,66.462v-0.005c-0.018,0.438-0.362,0.779-0.786,0.779c-0.427,0-0.773-0.342-0.788-0.775l-0.577-8.914
c0,0,0.577-18.667,0.577-18.669c0.015-0.438,0.361-0.781,0.788-0.781c0.424,0,0.769,0.343,0.786,0.781l0.652,18.669L31.74,66.462z
M35.311,66.402c-0.014,0.478-0.393,0.853-0.859,0.853c-0.47,0-0.846-0.375-0.858-0.849l-0.536-8.858l0.534-19.297
c0.015-0.479,0.391-0.855,0.86-0.855c0.467,0,0.846,0.375,0.859,0.855l0.603,19.298L35.311,66.402z M38.908,66.325v-0.007
c-0.014,0.519-0.423,0.929-0.932,0.929c-0.511,0-0.92-0.41-0.931-0.924l-0.493-8.773l0.49-18.805
c0.014-0.52,0.423-0.927,0.934-0.927c0.509,0,0.918,0.406,0.932,0.925l0.555,18.807L38.908,66.325z M42.534,66.27v-0.006
c-0.011,0.561-0.453,1-1.005,1c-0.551,0-0.994-0.439-1.005-0.994l-0.449-8.719l0.449-18.119c0.011-0.561,0.454-1,1.005-1
c0.552,0,0.994,0.44,1.005,1l0.503,18.121L42.534,66.27z M46.232,65.354l-0.045,0.854c-0.005,0.295-0.13,0.563-0.324,0.758
c-0.195,0.193-0.461,0.314-0.753,0.314c-0.329,0-0.625-0.152-0.824-0.39c-0.146-0.176-0.239-0.399-0.25-0.641
c-0.002-0.012-0.003-0.023-0.003-0.037c0,0-0.408-8.654-0.408-8.667l0.404-21.352l0.004-0.203c0.005-0.377,0.202-0.708,0.497-0.899
c0.167-0.11,0.365-0.175,0.58-0.175c0.218,0,0.424,0.068,0.595,0.184c0.285,0.193,0.476,0.519,0.482,0.889l0.452,21.562
L46.232,65.354z M49.825,66.092V66.09v-0.008c-0.013,0.631-0.525,1.146-1.15,1.146c-0.627,0-1.143-0.515-1.151-1.138l-0.232-4.209
l-0.238-4.325l0.469-23.397l0.002-0.118c0.004-0.356,0.17-0.674,0.427-0.885c0.197-0.164,0.45-0.262,0.725-0.262
c0.214,0,0.414,0.061,0.585,0.165c0.33,0.201,0.559,0.565,0.565,0.98l0.509,23.518L49.825,66.092z M80.872,67.25
c0,0-28.909,0.003-28.937,0c-0.625-0.062-1.121-0.559-1.127-1.198c0,0,0-33.131,0-33.132c0.006-0.609,0.215-0.922,1.004-1.227
c2.025-0.785,4.322-1.248,6.676-1.248c9.627,0,17.515,7.38,18.347,16.787c1.242-0.52,2.606-0.81,4.037-0.81
c5.767,0,10.438,4.674,10.438,10.439C91.311,62.626,86.639,67.25,80.872,67.25z"/>
</symbol>
<symbol id="icon-codepen" viewBox="0 0 32 32">
<path class="path1" d="M3.857 20.875l10.768 7.179v-6.411l-5.964-3.982zM2.75 18.304l3.446-2.304-3.446-2.304v4.607zM17.375 28.054l10.768-7.179-4.804-3.214-5.964 3.982v6.411zM16 19.25l4.857-3.25-4.857-3.25-4.857 3.25zM8.661 14.339l5.964-3.982v-6.411l-10.768 7.179zM25.804 16l3.446 2.304v-4.607zM23.339 14.339l4.804-3.214-10.768-7.179v6.411zM32 11.125v9.75q0 0.732-0.607 1.143l-14.625 9.75q-0.375 0.232-0.768 0.232t-0.768-0.232l-14.625-9.75q-0.607-0.411-0.607-1.143v-9.75q0-0.732 0.607-1.143l14.625-9.75q0.375-0.232 0.768-0.232t0.768 0.232l14.625 9.75q0.607 0.411 0.607 1.143z"></path>
</symbol>
<symbol id="icon-twitch" viewBox="0 0 32 32">
<path class="path1" d="M16 7.75v7.75h-2.589v-7.75h2.589zM23.107 7.75v7.75h-2.589v-7.75h2.589zM23.107 21.321l4.518-4.536v-14.196h-21.321v18.732h5.821v3.875l3.875-3.875h7.107zM30.214 0v18.089l-7.75 7.75h-5.821l-3.875 3.875h-3.875v-3.875h-7.107v-20.679l1.946-5.161h26.482z"></path>
</symbol>
<symbol id="icon-meanpath" viewBox="0 0 27 32">
<path class="path1" d="M23.411 15.036v2.036q0 0.429-0.241 0.679t-0.67 0.25h-3.607q-0.429 0-0.679-0.25t-0.25-0.679v-2.036q0-0.429 0.25-0.679t0.679-0.25h3.607q0.429 0 0.67 0.25t0.241 0.679zM14.661 19.143v-4.464q0-0.946-0.58-1.527t-1.527-0.58h-2.375q-1.214 0-1.714 0.929-0.5-0.929-1.714-0.929h-2.321q-0.946 0-1.527 0.58t-0.58 1.527v4.464q0 0.393 0.375 0.393h0.982q0.393 0 0.393-0.393v-4.107q0-0.429 0.241-0.679t0.688-0.25h1.679q0.429 0 0.679 0.25t0.25 0.679v4.107q0 0.393 0.375 0.393h0.964q0.393 0 0.393-0.393v-4.107q0-0.429 0.25-0.679t0.679-0.25h1.732q0.429 0 0.67 0.25t0.241 0.679v4.107q0 0.393 0.393 0.393h0.982q0.375 0 0.375-0.393zM25.179 17.429v-2.75q0-0.946-0.589-1.527t-1.536-0.58h-4.714q-0.946 0-1.536 0.58t-0.589 1.527v7.321q0 0.375 0.393 0.375h0.982q0.375 0 0.375-0.375v-3.214q0.554 0.75 1.679 0.75h3.411q0.946 0 1.536-0.58t0.589-1.527zM27.429 6.429v19.143q0 1.714-1.214 2.929t-2.929 1.214h-19.143q-1.714 0-2.929-1.214t-1.214-2.929v-19.143q0-1.714 1.214-2.929t2.929-1.214h19.143q1.714 0 2.929 1.214t1.214 2.929z"></path>
</symbol>
<symbol id="icon-pinterest-p" viewBox="0 0 97.75 97.75">
<path d="M48.875,0C21.883,0,0,21.882,0,48.875S21.883,97.75,48.875,97.75S97.75,75.868,97.75,48.875S75.867,0,48.875,0z
M54.499,65.109c-4.521,0-8.773-2.444-10.229-5.219c0,0-2.432,9.645-2.943,11.506c-1.813,6.58-7.146,13.162-7.561,13.701
c-0.289,0.375-0.928,0.258-0.994-0.24c-0.113-0.838-1.475-9.139,0.127-15.909c0.801-3.4,5.383-22.814,5.383-22.814
s-1.334-2.673-1.334-6.625c0-6.205,3.596-10.837,8.074-10.837c3.807,0,5.645,2.859,5.645,6.286c0,3.828-2.436,9.552-3.693,14.856
c-1.051,4.441,2.225,8.064,6.605,8.064c7.933,0,13.272-10.188,13.272-22.261c0-9.174-6.176-16.044-17.418-16.044
c-12.697,0-20.615,9.471-20.615,20.052c0,3.646,1.078,6.221,2.764,8.21c0.773,0.915,0.883,1.283,0.602,2.333
c-0.203,0.771-0.66,2.625-0.854,3.358c-0.279,1.062-1.137,1.44-2.098,1.049c-5.846-2.387-8.572-8.793-8.572-15.994
c0-11.893,10.029-26.154,29.922-26.154c15.985,0,26.506,11.566,26.506,23.984C77.089,52.839,67.956,65.109,54.499,65.109z"/>
</symbol>
<symbol id="icon-get-pocket" viewBox="0 0 31 32">
<path class="path1" d="M27.946 2.286q1.161 0 1.964 0.813t0.804 1.973v9.268q0 3.143-1.214 6t-3.259 4.911-4.893 3.259-5.973 1.205q-3.143 0-5.991-1.205t-4.902-3.259-3.268-4.911-1.214-6v-9.268q0-1.143 0.821-1.964t1.964-0.821h25.161zM15.375 21.286q0.839 0 1.464-0.589l7.214-6.929q0.661-0.625 0.661-1.518 0-0.875-0.616-1.491t-1.491-0.616q-0.839 0-1.464 0.589l-5.768 5.536-5.768-5.536q-0.625-0.589-1.446-0.589-0.875 0-1.491 0.616t-0.616 1.491q0 0.911 0.643 1.518l7.232 6.929q0.589 0.589 1.446 0.589z"></path>
</symbol>
<symbol id="icon-vimeo" viewBox="0 0 32 32">
<path class="path1" d="M30.518 9.25q-0.179 4.214-5.929 11.625-5.946 7.696-10.036 7.696-2.536 0-4.286-4.696-0.786-2.857-2.357-8.607-1.286-4.679-2.804-4.679-0.321 0-2.268 1.357l-1.375-1.75q0.429-0.375 1.929-1.723t2.321-2.063q2.786-2.464 4.304-2.607 1.696-0.161 2.732 0.991t1.446 3.634q0.786 5.125 1.179 6.661 0.982 4.446 2.143 4.446 0.911 0 2.75-2.875 1.804-2.875 1.946-4.393 0.232-2.482-1.946-2.482-1.018 0-2.161 0.464 2.143-7.018 8.196-6.821 4.482 0.143 4.214 5.821z"></path>
</symbol>
<symbol id="icon-reddit-alien" viewBox="0 0 32 32">
<path class="path1" d="M32 15.107q0 1.036-0.527 1.884t-1.42 1.295q0.214 0.821 0.214 1.714 0 2.768-1.902 5.125t-5.188 3.723-7.143 1.366-7.134-1.366-5.179-3.723-1.902-5.125q0-0.839 0.196-1.679-0.911-0.446-1.464-1.313t-0.554-1.902q0-1.464 1.036-2.509t2.518-1.045q1.518 0 2.589 1.125 3.893-2.714 9.196-2.893l2.071-9.304q0.054-0.232 0.268-0.375t0.464-0.089l6.589 1.446q0.321-0.661 0.964-1.063t1.411-0.402q1.107 0 1.893 0.777t0.786 1.884-0.786 1.893-1.893 0.786-1.884-0.777-0.777-1.884l-5.964-1.321-1.857 8.429q5.357 0.161 9.268 2.857 1.036-1.089 2.554-1.089 1.482 0 2.518 1.045t1.036 2.509zM7.464 18.661q0 1.107 0.777 1.893t1.884 0.786 1.893-0.786 0.786-1.893-0.786-1.884-1.893-0.777q-1.089 0-1.875 0.786t-0.786 1.875zM21.929 25q0.196-0.196 0.196-0.464t-0.196-0.464q-0.179-0.179-0.446-0.179t-0.464 0.179q-0.732 0.75-2.161 1.107t-2.857 0.357-2.857-0.357-2.161-1.107q-0.196-0.179-0.464-0.179t-0.446 0.179q-0.196 0.179-0.196 0.455t0.196 0.473q0.768 0.768 2.116 1.214t2.188 0.527 1.625 0.080 1.625-0.080 2.188-0.527 2.116-1.214zM21.875 21.339q1.107 0 1.884-0.786t0.777-1.893q0-1.089-0.786-1.875t-1.875-0.786q-1.107 0-1.893 0.777t-0.786 1.884 0.786 1.893 1.893 0.786z"></path>
</symbol>
<symbol id="icon-hashtag" viewBox="0 0 32 32">
<path class="path1" d="M17.696 18.286l1.143-4.571h-4.536l-1.143 4.571h4.536zM31.411 9.286l-1 4q-0.125 0.429-0.554 0.429h-5.839l-1.143 4.571h5.554q0.268 0 0.446 0.214 0.179 0.25 0.107 0.5l-1 4q-0.089 0.429-0.554 0.429h-5.839l-1.446 5.857q-0.125 0.429-0.554 0.429h-4q-0.286 0-0.464-0.214-0.161-0.214-0.107-0.5l1.393-5.571h-4.536l-1.446 5.857q-0.125 0.429-0.554 0.429h-4.018q-0.268 0-0.446-0.214-0.161-0.214-0.107-0.5l1.393-5.571h-5.554q-0.268 0-0.446-0.214-0.161-0.214-0.107-0.5l1-4q0.125-0.429 0.554-0.429h5.839l1.143-4.571h-5.554q-0.268 0-0.446-0.214-0.179-0.25-0.107-0.5l1-4q0.089-0.429 0.554-0.429h5.839l1.446-5.857q0.125-0.429 0.571-0.429h4q0.268 0 0.446 0.214 0.161 0.214 0.107 0.5l-1.393 5.571h4.536l1.446-5.857q0.125-0.429 0.571-0.429h4q0.268 0 0.446 0.214 0.161 0.214 0.107 0.5l-1.393 5.571h5.554q0.268 0 0.446 0.214 0.161 0.214 0.107 0.5z"></path>
</symbol>
<symbol id="icon-chain" viewBox="0 0 30 32">
<path class="path1" d="M26 21.714q0-0.714-0.5-1.214l-3.714-3.714q-0.5-0.5-1.214-0.5-0.75 0-1.286 0.571 0.054 0.054 0.339 0.33t0.384 0.384 0.268 0.339 0.232 0.455 0.063 0.491q0 0.714-0.5 1.214t-1.214 0.5q-0.268 0-0.491-0.063t-0.455-0.232-0.339-0.268-0.384-0.384-0.33-0.339q-0.589 0.554-0.589 1.304 0 0.714 0.5 1.214l3.679 3.696q0.482 0.482 1.214 0.482 0.714 0 1.214-0.464l2.625-2.607q0.5-0.5 0.5-1.196zM13.446 9.125q0-0.714-0.5-1.214l-3.679-3.696q-0.5-0.5-1.214-0.5-0.696 0-1.214 0.482l-2.625 2.607q-0.5 0.5-0.5 1.196 0 0.714 0.5 1.214l3.714 3.714q0.482 0.482 1.214 0.482 0.75 0 1.286-0.554-0.054-0.054-0.339-0.33t-0.384-0.384-0.268-0.339-0.232-0.455-0.063-0.491q0-0.714 0.5-1.214t1.214-0.5q0.268 0 0.491 0.063t0.455 0.232 0.339 0.268 0.384 0.384 0.33 0.339q0.589-0.554 0.589-1.304zM29.429 21.714q0 2.143-1.518 3.625l-2.625 2.607q-1.482 1.482-3.625 1.482-2.161 0-3.643-1.518l-3.679-3.696q-1.482-1.482-1.482-3.625 0-2.196 1.571-3.732l-1.571-1.571q-1.536 1.571-3.714 1.571-2.143 0-3.643-1.5l-3.714-3.714q-1.5-1.5-1.5-3.643t1.518-3.625l2.625-2.607q1.482-1.482 3.625-1.482 2.161 0 3.643 1.518l3.679 3.696q1.482 1.482 1.482 3.625 0 2.196-1.571 3.732l1.571 1.571q1.536-1.571 3.714-1.571 2.143 0 3.643 1.5l3.714 3.714q1.5 1.5 1.5 3.643z"></path>
</symbol>
<symbol id="icon-thumb-tack" viewBox="0 0 21 32">
<path class="path1" d="M8.571 15.429v-8q0-0.25-0.161-0.411t-0.411-0.161-0.411 0.161-0.161 0.411v8q0 0.25 0.161 0.411t0.411 0.161 0.411-0.161 0.161-0.411zM20.571 21.714q0 0.464-0.339 0.804t-0.804 0.339h-7.661l-0.911 8.625q-0.036 0.214-0.188 0.366t-0.366 0.152h-0.018q-0.482 0-0.571-0.482l-1.357-8.661h-7.214q-0.464 0-0.804-0.339t-0.339-0.804q0-2.196 1.402-3.955t3.17-1.759v-9.143q-0.929 0-1.607-0.679t-0.679-1.607 0.679-1.607 1.607-0.679h11.429q0.929 0 1.607 0.679t0.679 1.607-0.679 1.607-1.607 0.679v9.143q1.768 0 3.17 1.759t1.402 3.955z"></path>
</symbol>
<symbol id="icon-left" viewBox="0 0 493.353 493.352">
<path d="M490.786,212.678c-1.718-1.713-3.901-2.568-6.57-2.568H127.907v-63.953c0-3.809-1.812-6.567-5.424-8.28c-3.621-1.521-6.952-0.949-9.995,1.713L2.853,240.658C0.95,242.564,0,244.848,0,247.511c0,2.474,0.95,4.665,2.853,6.567l109.636,99.928c3.046,2.474,6.377,2.956,9.995,1.427c3.612-1.52,5.424-4.278,5.424-8.278v-63.953h356.315c2.663,0,4.854-0.859,6.564-2.567c1.711-1.711,2.566-3.897,2.566-6.563v-54.821C493.356,216.586,492.497,214.393,490.786,212.678z"/>
</symbol>
<symbol id="icon-clock" viewBox="0 0 512 512">
<path d="m256 0c-141.164062 0-256 114.835938-256 256s114.835938 256 256 256 256-114.835938 256-256-114.835938-256-256-256zm121.75 388.414062c-4.160156 4.160157-9.621094 6.253907-15.082031 6.253907-5.460938 0-10.925781-2.09375-15.082031-6.253907l-106.667969-106.664062c-4.011719-3.988281-6.25-9.410156-6.25-15.082031v-138.667969c0-11.796875 9.554687-21.332031 21.332031-21.332031s21.332031 9.535156 21.332031 21.332031v129.835938l100.417969 100.414062c8.339844 8.34375 8.339844 21.824219 0 30.164062zm0 0"/>
</symbol>
<symbol id="icon-plane" viewBox="0 0 493.595 493.595">
<path d="M487.077,83.395c-6.435-8.772-16.579-13.751-27.136-13.75c-2.73,0-5.488,0.333-8.216,1.02L25.442,177.971
c-13.192,3.319-23.086,14.255-25.079,27.71c-1.989,13.456,4.315,26.787,15.979,33.784l90.143,54.086v118.643
c0,4.49,2.559,8.588,6.592,10.561c4.034,1.972,8.84,1.474,12.383-1.284l84.547-65.805l69.455,41.672
c5.419,3.252,11.388,4.801,17.284,4.801c11.308,0,22.341-5.699,28.694-16.023l163.162-265.178
C495.778,109.278,495.174,94.434,487.077,83.395z M294.73,360.095L189.042,296.68l107.223-92.395
c1.502-1.294,1.854-3.48,0.834-5.179c-1.018-1.699-3.112-2.419-4.96-1.704l-163.321,63.145L49.493,212.95l397.313-100.013
L294.73,360.095z"/>
</symbol>
<symbol id="icon-angle-left" viewBox="0 0 129 129">
<path d="m88.6,121.3c0.8,0.8 1.8,1.2 2.9,1.2s2.1-0.4 2.9-1.2c1.6-1.6 1.6-4.2 0-5.8l-51-51 51-51c1.6-1.6 1.6-4.2 0-5.8s-4.2-1.6-5.8,0l-54,53.9c-1.6,1.6-1.6,4.2 0,5.8l54,53.9z"></path>
</symbol>
<symbol id="icon-right" viewBox="0 0 493.356 493.356">
<path d="M490.498,239.278l-109.632-99.929c-3.046-2.474-6.376-2.95-9.993-1.427c-3.613,1.525-5.427,4.283-5.427,8.282v63.954H9.136c-2.666,0-4.856,0.855-6.567,2.568C0.859,214.438,0,216.628,0,219.292v54.816c0,2.663,0.855,4.853,2.568,6.563
c1.715,1.712,3.905,2.567,6.567,2.567h356.313v63.953c0,3.812,1.817,6.57,5.428,8.278c3.62,1.529,6.95,0.951,9.996-1.708
l109.632-101.077c1.903-1.902,2.852-4.182,2.852-6.849C493.356,243.367,492.401,241.181,490.498,239.278z"/>
</symbol>
<symbol id="icon-angle-right" viewBox="0 0 129 129">
<path d="m40.4,121.3c-0.8,0.8-1.8,1.2-2.9,1.2s-2.1-0.4-2.9-1.2c-1.6-1.6-1.6-4.2 0-5.8l51-51-51-51c-1.6-1.6-1.6-4.2 0-5.8 1.6-1.6 4.2-1.6 5.8,0l53.9,53.9c1.6,1.6 1.6,4.2 0,5.8l-53.9,53.9z"></path>
</symbol>
<symbol id="icon-play" viewBox="0 0 22 28">
<path d="M21.625 14.484l-20.75 11.531c-0.484 0.266-0.875 0.031-0.875-0.516v-23c0-0.547 0.391-0.781 0.875-0.516l20.75 11.531c0.484 0.266 0.484 0.703 0 0.969z"></path>
</symbol>
<symbol id="icon-pause" viewBox="0 0 24 28">
<path d="M24 3v22c0 0.547-0.453 1-1 1h-8c-0.547 0-1-0.453-1-1v-22c0-0.547 0.453-1 1-1h8c0.547 0 1 0.453 1 1zM10 3v22c0 0.547-0.453 1-1 1h-8c-0.547 0-1-0.453-1-1v-22c0-0.547 0.453-1 1-1h8c0.547 0 1 0.453 1 1z"></path>
</symbol>

<!-- Spinner Icons added -->
<symbol id="icon-spinner-two-way" viewBox="0 0 533.333 533.333">
<path d="M266.667,0C121.485,0,3.407,116.022,0.079,260.403C3.163,134.433,98.95,33.333,216.667,33.333
c119.661,0,216.667,104.467,216.667,233.333c0,27.614,22.386,50,50,50s50-22.386,50-50C533.333,119.391,413.942,0,266.667,0z
 M266.667,533.333c145.182,0,263.259-116.021,266.587-260.402C530.17,398.901,434.383,500,316.667,500
C197.005,500,100,395.533,100,266.667c0-27.615-22.386-50-50-50s-50,22.386-50,50C0,413.942,119.391,533.333,266.667,533.333z"/>
</symbol>
<symbol id="icon-up" viewBox="0 0 64 64">
<path d="M3.352,48.296l28.56-28.328l28.58,28.347c0.397,0.394,0.917,0.59,1.436,0.59c0.52,0,1.04-0.196,1.436-0.59 c0.793-0.787,0.793-2.062,0-2.849l-29.98-29.735c-0.2-0.2-0.494-0.375-0.757-0.475c-0.75-0.282-1.597-0.107-2.166,0.456   L0.479,45.447c-0.793,0.787-0.793,2.062,0,2.849C1.273,49.082,2.558,49.082,3.352,48.296z"/>
</symbol>
<symbol id="icon-down" viewBox="0 0 129 129">
<path d="m121.3,34.6c-1.6-1.6-4.2-1.6-5.8,0l-51,51.1-51.1-51.1c-1.6-1.6-4.2-1.6-5.8,0-1.6,1.6-1.6,4.2 0,5.8l53.9,53.9c0.8,0.8 1.8,1.2 2.9,1.2 1,0 2.1-0.4 2.9-1.2l53.9-53.9c1.7-1.6 1.7-4.2 0.1-5.8z"/>
</symbol>
<symbol id="icon-spinner-umbrella" viewBox="0 0 512 512">
<path d="M96,255.006c0-6.09,0.352-12.098,1.015-18.011l-92.49-30.052C1.567,222.513,0,238.575,0,255.006
c0,73.615,31.083,139.96,80.827,186.662l57.142-78.647C111.907,334.557,96,296.641,96,255.006z M416,255.006
c0,41.634-15.906,79.55-41.969,108.014l57.143,78.647C480.916,394.967,512,328.621,512,255.006c0-16.431-1.566-32.493-4.523-48.063
l-92.49,30.052C415.648,242.909,416,248.917,416,255.006z M288,98.21c45.967,9.331,84.771,38.371,107.225,77.913l92.49-30.051
C451.115,68.362,376.594,12.042,288,0.994V98.21z M116.775,176.123c22.453-39.542,61.258-68.582,107.225-77.913V0.994
C135.406,12.042,60.885,68.362,24.287,146.071L116.775,176.123z M322.277,400.67c-20.195,9.205-42.635,14.336-66.277,14.336
c-23.642,0-46.083-5.131-66.277-14.334l-57.146,78.654c36.603,20.184,78.668,31.68,123.423,31.68
c44.756,0,86.82-11.496,123.424-31.68L322.277,400.67z"/>
</symbol>
<symbol id="icon-spinner-circle" viewBox="0 0 512 512">
<path d="M9.9 0.2l-0.2 1c3 0.8 5.3 3.5 5.3 6.8 0 3.9-3.1 7-7 7s-7-3.1-7-7c0-3.3 2.3-6 5.3-6.8l-0.2-1c-3.5 0.9-6.1 4.1-6.1 7.8 0 4.4 3.6 8 8 8s8-3.6 8-8c0-3.7-2.6-6.9-6.1-7.8z"></path>
</symbol>
<symbol id="icon-spinner-dots" viewBox="0 0 32.707 32.707">
<path d="M21.477,4.511c0,2.487-2.021,4.508-4.508,4.508c-2.49,0-4.509-2.021-4.509-4.508c0-2.49,2.02-4.511,4.509-4.511
C19.458,0,21.477,2.021,21.477,4.511z M16.972,27.68c-1.386-0.002-2.513,1.119-2.517,2.508c-0.003,1.391,1.117,2.518,2.505,2.52
c1.39,0.004,2.517-1.117,2.519-2.506C19.484,28.811,18.361,27.684,16.972,27.68z M31.451,17.352c0-0.906-0.734-1.641-1.641-1.641
c-0.908,0-1.644,0.732-1.644,1.641c0,0.904,0.733,1.643,1.644,1.643C30.716,18.994,31.451,18.258,31.451,17.352z M6.995,17.352
c0-1.585-1.284-2.87-2.87-2.87s-2.869,1.285-2.869,2.87c0,1.584,1.283,2.869,2.869,2.869S6.995,18.936,6.995,17.352z M26.962,7.354
c-0.504-0.506-1.319-0.504-1.825,0c-0.505,0.506-0.505,1.328,0,1.832c0.506,0.506,1.321,0.506,1.825,0S27.466,7.86,26.962,7.354z
 M9.973,24.354c-1.152-1.146-3.019-1.146-4.17-0.002c-1.151,1.146-1.152,3.012,0,4.16c1.152,1.148,3.018,1.15,4.168,0
C11.125,27.367,11.125,25.502,9.973,24.354z M27.251,27.631c0.658-0.662,0.658-1.734-0.002-2.396
c-0.658-0.658-1.726-0.658-2.385,0.004c-0.658,0.66-0.658,1.732,0,2.395C25.525,28.293,26.591,28.293,27.251,27.631z
 M10.047,10.427c1.188-1.189,1.188-3.119,0-4.311c-1.188-1.189-3.115-1.189-4.305,0c-1.188,1.189-1.188,3.119,0.001,4.311
S8.858,11.618,10.047,10.427z"/>
</symbol>
<symbol id="icon-spinner-one-way" viewBox="0 0 516.727 516.727">
<path d="M516.727,266.696c-0.665-34.825-8.221-69.54-22.175-101.283c-13.908-31.771-34.094-60.551-58.876-84.333
c-24.767-23.8-54.139-42.615-85.929-55.027c-31.773-12.46-65.937-18.412-99.687-17.69c-33.755,0.668-67.36,8.007-98.091,21.539
c-30.754,13.488-58.615,33.058-81.632,57.071c-23.033,24.001-41.229,52.452-53.222,83.229C5.077,200.962-0.66,234.013,0.06,266.696
c0.67,32.688,7.793,65.182,20.903,94.899c13.067,29.738,32.019,56.681,55.266,78.931c23.234,22.268,50.766,39.846,80.528,51.417
c29.749,11.616,61.69,17.136,93.303,16.419c31.62-0.671,63.001-7.58,91.707-20.268c28.724-12.646,54.747-30.979,76.231-53.461
c21.503-22.469,38.461-49.08,49.611-77.827c6.79-17.427,11.396-35.624,13.824-54.062c0.649,0.037,1.302,0.063,1.96,0.063
c18.409,0,33.333-14.923,33.333-33.333c0-0.936-0.049-1.861-0.124-2.777L516.727,266.696L516.727,266.696z M463.762,355.21
c-12.226,27.71-29.94,52.812-51.655,73.532c-21.703,20.732-47.396,37.076-75.127,47.807c-27.724,10.77-57.443,15.859-86.919,15.146
c-29.481-0.677-58.644-7.154-85.323-18.997c-26.692-11.806-50.877-28.901-70.83-49.849c-19.968-20.938-35.691-45.711-46.001-72.427
c-10.349-26.712-15.223-55.321-14.512-83.728c0.678-28.413,6.941-56.465,18.361-82.131c11.384-25.677,27.863-48.943,48.045-68.13
c20.172-19.202,44.026-34.307,69.726-44.195c25.697-9.928,53.195-14.587,80.534-13.877c27.343,0.68,54.286,6.728,78.939,17.726
c24.662,10.963,47.008,26.824,65.429,46.241c18.436,19.405,32.922,42.341,42.391,67.025c9.504,24.684,13.948,51.072,13.241,77.342
h0.125c-0.076,0.916-0.125,1.841-0.125,2.777c0,17.193,13.018,31.34,29.732,33.137C476.551,320.747,471.184,338.453,463.762,355.21
z"/>
</symbol>
<symbol id="icon-user" viewBox="0 0 512 512">
<path d="M332.64 64.58C313.18 43.57 286 32 256 32c-30.16 0-57.43 11.5-76.8 32.38-19.58 21.11-29.12 49.8-26.88 80.78C156.76 206.28 203.27 256 256 256s99.16-49.71 103.67-110.82c2.27-30.7-7.33-59.33-27.03-80.6zM432 480H80a31 31 0 01-24.2-11.13c-6.5-7.77-9.12-18.38-7.18-29.11C57.06 392.94 83.4 353.61 124.8 326c36.78-24.51 83.37-38 131.2-38s94.42 13.5 131.2 38c41.4 27.6 67.74 66.93 76.18 113.75 1.94 10.73-.68 21.34-7.18 29.11A31 31 0 01432 480z"/>
</symbol>
<symbol id="icon-user-o" viewBox="0 0 512 512">
<path d="M344 144c-3.92 52.87-44 96-88 96s-84.15-43.12-88-96c-4-55 35-96 88-96s92 42 88 96z" fill="none" stroke="currentColor" stroke-linecap="round" stroke-linejoin="round" stroke-width="32"/><path d="M256 304c-87 0-175.3 48-191.64 138.6C62.39 453.52 68.57 464 80 464h352c11.44 0 17.62-10.48 15.65-21.4C431.3 352 343 304 256 304z" fill="none" stroke="currentColor" stroke-miterlimit="10" stroke-width="32"/>
</symbol>
<symbol id="icon-heart" viewBox="0 0 512 512">
<path d="M256 448a32 32 0 01-18-5.57c-78.59-53.35-112.62-89.93-131.39-112.8-40-48.75-59.15-98.8-58.61-153C48.63 114.52 98.46 64 159.08 64c44.08 0 74.61 24.83 92.39 45.51a6 6 0 009.06 0C278.31 88.81 308.84 64 352.92 64c60.62 0 110.45 50.52 111.08 112.64.54 54.21-18.63 104.26-58.61 153-18.77 22.87-52.8 59.45-131.39 112.8a32 32 0 01-18 5.56z"/>
</symbol>
<symbol id="icon-heart-o" viewBox="0 0 512 512">
<path d="M352.92 80C288 80 256 144 256 144s-32-64-96.92-64c-52.76 0-94.54 44.14-95.08 96.81-1.1 109.33 86.73 187.08 183 252.42a16 16 0 0018 0c96.26-65.34 184.09-143.09 183-252.42-.54-52.67-42.32-96.81-95.08-96.81z" fill="none" stroke="currentColor" stroke-linecap="round" stroke-linejoin="round" stroke-width="32"/>
</symbol>
<symbol id="icon-compare" viewBox="0 0 512 512">
<path d="M218.31 340.69A16 16 0 00191 352v32h-20a28 28 0 01-28-28V152a64 64 0 10-64-1.16V356a92.1 92.1 0 0092 92h20v32a16 16 0 0027.31 11.31l64-64a16 16 0 000-22.62zM112 64a32 32 0 11-32 32 32 32 0 0132-32zM432 360.61V156a92.1 92.1 0 00-92-92h-20V32a16 16 0 00-27.31-11.31l-64 64a16 16 0 000 22.62l64 64A16 16 0 00320 160v-32h20a28 28 0 0128 28v204.61a64 64 0 1064 0zM400 448a32 32 0 1132-32 32 32 0 01-32 32z"/>
</symbol>
<symbol id="icon-compare-o" viewBox="0 0 512 512">
<path fill="none" stroke="currentColor" stroke-linecap="round" stroke-linejoin="round" stroke-width="32" d="M304 160l-64-64 64-64M207 352l64 64-64 64"/><circle cx="112" cy="96" r="48" fill="none" stroke="currentColor" stroke-linecap="round" stroke-linejoin="round" stroke-width="32"/><circle cx="400" cy="416" r="48" fill="none" stroke="currentColor" stroke-linecap="round" stroke-linejoin="round" stroke-width="32"/><path d="M256 96h84a60 60 0 0160 60v212M255 416h-84a60 60 0 01-60-60V144" fill="none" stroke="currentColor" stroke-linecap="round" stroke-linejoin="round" stroke-width="32"/>
</symbol>
<symbol id="icon-login" viewBox="0 0 512 512">
<path d="M392 80H232a56.06 56.06 0 00-56 56v104h153.37l-52.68-52.69a16 16 0 0122.62-22.62l80 80a16 16 0 010 22.62l-80 80a16 16 0 01-22.62-22.62L329.37 272H176v104c0 32.05 33.79 56 64 56h152a56.06 56.06 0 0056-56V136a56.06 56.06 0 00-56-56zM80 240a16 16 0 000 32h96v-32z"/>
</symbol>
<symbol id="icon-login-o" viewBox="0 0 512 512">
<path d="M192 176v-40a40 40 0 0140-40h160a40 40 0 0140 40v240a40 40 0 01-40 40H240c-22.09 0-48-17.91-48-40v-40" fill="none" stroke="currentColor" stroke-linecap="round" stroke-linejoin="round" stroke-width="32"/><path fill="none" stroke="currentColor" stroke-linecap="round" stroke-linejoin="round" stroke-width="32" d="M288 336l80-80-80-80M80 256h272"/>
</symbol>

</defs>
</svg>
